{
  "asset": {
    "generator": "Khronos glTF Blender I/O v1.7.33",
    "version": "2.0"
  },
  "extensionsUsed": [
    "KHR_texture_transform"
  ],
  "extensionsRequired": [
    "KHR_texture_transform"
  ],
  "scene": 0,
  "scenes": [
    {
      "name": "Scene",
      "nodes": [
        0
      ]
    }
  ],
  "nodes": [
    {
      "mesh": 0,
      "name": "sphere_gltf"
    }
  ],
  "materials": [
    {
      "doubleSided": true,
      "name": "wood_cabinet_worn_long",
      "normalTexture": {
        "extensions": {
          "KHR_texture_transform": {
            "offset": [
              0,
              -1
            ],
            "scale": [
              1,
              2
            ]
          }
        },
        "index": 0
      },
      "pbrMetallicRoughness": {
        "baseColorTexture": {
          "extensions": {
            "KHR_texture_transform": {
              "offset": [
                0,
                -1
              ],
              "scale": [
                1,
                2
              ]
            }
          },
          "index": 1
        },
        "metallicFactor": 0,
        "metallicRoughnessTexture": {
          "extensions": {
            "KHR_texture_transform": {
              "offset": [
                0,
                -1
              ],
              "scale": [
                1,
                2
              ]
            }
          },
          "index": 2
        }
      }
    }
  ],
  "meshes": [
    {
      "name": "Sphere.001",
      "primitives": [
        {
          "attributes": {
            "POSITION": 0,
            "NORMAL": 1,
            "TEXCOORD_0": 2
          },
          "indices": 3,
          "material": 0
        }
      ]
    }
  ],
  "textures": [
    {
      "sampler": 0,
      "source": 0
    },
    {
      "sampler": 0,
      "source": 1
    },
    {
      "sampler": 0,
      "source": 2
    }
  ],
  "images": [
    {
      "mimeType": "image/jpeg",
      "name": "wood_cabinet_worn_long_nor_gl_16k",
      "uri": "textures/wood_cabinet_worn_long_nor_gl_2k.jpg"
    },
    {
      "mimeType": "image/jpeg",
      "name": "wood_cabinet_worn_long_diff_16k",
      "uri": "textures/wood_cabinet_worn_long_diff_2k.jpg"
    },
    {
      "mimeType": "image/jpeg",
      "name": "wood_cabinet_worn_long_rough_16k",
      "uri": "textures/wood_cabinet_worn_long_rough_2k.jpg"
    }
  ],
  "accessors": [
    {
      "bufferView": 0,
      "componentType": 5126,
      "count": 53907,
      "max": [
        0.5054358839988708,
        0.5069289803504944,
        0.5027799606323242
      ],
      "min": [
        -0.5054359436035156,
        -0.5055431723594666,
        -0.5027785301208496
      ],
      "type": "VEC3"
    },
    {
      "bufferView": 1,
      "componentType": 5126,
      "count": 53907,
      "type": "VEC3"
    },
    {
      "bufferView": 2,
      "componentType": 5126,
      "count": 53907,
      "type": "VEC2"
    },
    {
      "bufferView": 3,
      "componentType": 5123,
      "count": 322170,
      "type": "SCALAR"
    }
  ],
  "bufferViews": [
    {
      "buffer": 0,
      "byteLength": 646884,
      "byteOffset": 0
    },
    {
      "buffer": 0,
      "byteLength": 646884,
      "byteOffset": 646884
    },
    {
      "buffer": 0,
      "byteLength": 431256,
      "byteOffset": 1293768
    },
    {
      "buffer": 0,
      "byteLength": 644340,
      "byteOffset": 1725024
    }
  ],
  "samplers": [
    {
      "magFilter": 9729,
      "minFilter": 9987
    }
  ],
  "buffers": [
    {
      "byteLength": 2369364,
      "uri": "wood_cabinet_worn_long.bin"
    }
  ]
}