{
  "asset": {
    "generator": "Khronos glTF Blender I/O v1.6.8",
    "version": "2.0"
  },
  "scene": 0,
  "scenes": [
    {
      "name": "Scene",
      "nodes": [
        0
      ]
    }
  ],
  "nodes": [
    {
      "mesh": 0,
      "name": "sphere_gltf.001"
    }
  ],
  "materials": [
    {
      "doubleSided": true,
      "name": "green_metal_rust",
      "normalTexture": {
        "index": 0
      },
      "pbrMetallicRoughness": {
        "baseColorTexture": {
          "index": 1
        },
        "metallicFactor": 0,
        "metallicRoughnessTexture": {
          "index": 2
        }
      }
    }
  ],
  "meshes": [
    {
      "name": "Sphere.002",
      "primitives": [
        {
          "attributes": {
            "POSITION": 0,
            "NORMAL": 1,
            "TEXCOORD_0": 2
          },
          "indices": 3,
          "material": 0
        }
      ]
    }
  ],
  "textures": [
    {
      "sampler": 0,
      "source": 0
    },
    {
      "sampler": 0,
      "source": 1
    },
    {
      "sampler": 0,
      "source": 2
    }
  ],
  "images": [
    {
      "mimeType": "image/jpeg",
      "name": "green_metal_rust_nor_gl_4k",
      "uri": "textures/green_metal_rust_nor_gl_2k.jpg"
    },
    {
      "mimeType": "image/jpeg",
      "name": "green_metal_rust_diff_4k",
      "uri": "textures/green_metal_rust_diff_2k.jpg"
    },
    {
      "mimeType": "image/jpeg",
      "name": "green_metal_rust_rough_4k",
      "uri": "textures/green_metal_rust_rough_2k.jpg"
    }
  ],
  "accessors": [
    {
      "bufferView": 0,
      "componentType": 5126,
      "count": 53919,
      "max": [
        0.5004088878631592,
        0.5004842281341553,
        0.499885231256485
      ],
      "min": [
        -0.500408947467804,
        -0.5003252625465393,
        -0.49988284707069397
      ],
      "type": "VEC3"
    },
    {
      "bufferView": 1,
      "componentType": 5126,
      "count": 53919,
      "type": "VEC3"
    },
    {
      "bufferView": 2,
      "componentType": 5126,
      "count": 53919,
      "type": "VEC2"
    },
    {
      "bufferView": 3,
      "componentType": 5123,
      "count": 322170,
      "type": "SCALAR"
    }
  ],
  "bufferViews": [
    {
      "buffer": 0,
      "byteLength": 647028,
      "byteOffset": 0
    },
    {
      "buffer": 0,
      "byteLength": 647028,
      "byteOffset": 647028
    },
    {
      "buffer": 0,
      "byteLength": 431352,
      "byteOffset": 1294056
    },
    {
      "buffer": 0,
      "byteLength": 644340,
      "byteOffset": 1725408
    }
  ],
  "samplers": [
    {
      "magFilter": 9729,
      "minFilter": 9987
    }
  ],
  "buffers": [
    {
      "byteLength": 2369748,
      "uri": "green_metal_rust.bin"
    }
  ]
}