{
  "asset": {
    "generator": "Khronos glTF Blender I/O v1.5.17",
    "version": "2.0"
  },
  "scene": 0,
  "scenes": [
    {
      "name": "Scene",
      "nodes": [
        0
      ]
    }
  ],
  "nodes": [
    {
      "mesh": 0,
      "name": "sphere_gltf"
    }
  ],
  "materials": [
    {
      "doubleSided": true,
      "name": "fabric_leather_01",
      "normalTexture": {
        "index": 0
      },
      "pbrMetallicRoughness": {
        "baseColorTexture": {
          "index": 1
        },
        "metallicFactor": 0,
        "metallicRoughnessTexture": {
          "index": 2
        }
      }
    }
  ],
  "meshes": [
    {
      "name": "Sphere.001",
      "primitives": [
        {
          "attributes": {
            "POSITION": 0,
            "NORMAL": 1,
            "TEXCOORD_0": 2
          },
          "indices": 3,
          "material": 0
        }
      ]
    }
  ],
  "textures": [
    {
      "sampler": 0,
      "source": 0
    },
    {
      "sampler": 0,
      "source": 1
    },
    {
      "sampler": 0,
      "source": 2
    }
  ],
  "images": [
    {
      "mimeType": "image/jpeg",
      "name": "fabric_leather_01_nor_gl_4k",
      "uri": "textures/fabric_leather_01_nor_gl_2k.jpg"
    },
    {
      "mimeType": "image/jpeg",
      "name": "fabric_leather_01_diff_4k",
      "uri": "textures/fabric_leather_01_diff_2k.jpg"
    },
    {
      "mimeType": "image/jpeg",
      "name": "fabric_leather_01_rough_4k",
      "uri": "textures/fabric_leather_01_rough_2k.jpg"
    }
  ],
  "accessors": [
    {
      "bufferView": 0,
      "componentType": 5126,
      "count": 53957,
      "max": [
        0.19910092651844025,
        0.20262916386127472,
        0.19951608777046204
      ],
      "min": [
        -0.19909031689167023,
        -0.20259982347488403,
        -0.19951671361923218
      ],
      "type": "VEC3"
    },
    {
      "bufferView": 1,
      "componentType": 5126,
      "count": 53957,
      "type": "VEC3"
    },
    {
      "bufferView": 2,
      "componentType": 5126,
      "count": 53957,
      "type": "VEC2"
    },
    {
      "bufferView": 3,
      "componentType": 5123,
      "count": 322170,
      "type": "SCALAR"
    }
  ],
  "bufferViews": [
    {
      "buffer": 0,
      "byteLength": 647484,
      "byteOffset": 0
    },
    {
      "buffer": 0,
      "byteLength": 647484,
      "byteOffset": 647484
    },
    {
      "buffer": 0,
      "byteLength": 431656,
      "byteOffset": 1294968
    },
    {
      "buffer": 0,
      "byteLength": 644340,
      "byteOffset": 1726624
    }
  ],
  "samplers": [
    {
      "magFilter": 9729,
      "minFilter": 9987
    }
  ],
  "buffers": [
    {
      "byteLength": 2370964,
      "uri": "fabric_leather_01.bin"
    }
  ]
}