{
  "asset": {
    "generator": "Khronos glTF Blender I/O v3.2.43",
    "version": "2.0"
  },
  "scene": 0,
  "scenes": [
    {
      "name": "Scene",
      "nodes": [
        0
      ]
    }
  ],
  "nodes": [
    {
      "mesh": 0,
      "name": "sphere_gltf"
    }
  ],
  "materials": [
    {
      "doubleSided": true,
      "name": "laminate_floor",
      "normalTexture": {
        "index": 0
      },
      "pbrMetallicRoughness": {
        "baseColorTexture": {
          "index": 1
        },
        "metallicFactor": 0,
        "metallicRoughnessTexture": {
          "index": 2
        }
      }
    }
  ],
  "meshes": [
    {
      "name": "Sphere.001",
      "primitives": [
        {
          "attributes": {
            "POSITION": 0,
            "NORMAL": 1,
            "TEXCOORD_0": 2
          },
          "indices": 3,
          "material": 0
        }
      ]
    }
  ],
  "textures": [
    {
      "sampler": 0,
      "source": 0
    },
    {
      "sampler": 0,
      "source": 1
    },
    {
      "sampler": 0,
      "source": 2
    }
  ],
  "images": [
    {
      "mimeType": "image/jpeg",
      "name": "laminate_floor_nor_gl_8k",
      "uri": "textures/laminate_floor_nor_gl_2k.jpg"
    },
    {
      "mimeType": "image/jpeg",
      "name": "laminate_floor_diff_8k",
      "uri": "textures/laminate_floor_diff_2k.jpg"
    },
    {
      "mimeType": "image/jpeg",
      "name": "laminate_floor_rough_8k",
      "uri": "textures/laminate_floor_rough_2k.jpg"
    }
  ],
  "accessors": [
    {
      "bufferView": 0,
      "componentType": 5126,
      "count": 53935,
      "max": [
        1.0001438856124878,
        1.0000977516174316,
        1.000132441520691
      ],
      "min": [
        -1.000144124031067,
        -1.0000845193862915,
        -1.0001240968704224
      ],
      "type": "VEC3"
    },
    {
      "bufferView": 1,
      "componentType": 5126,
      "count": 53935,
      "type": "VEC3"
    },
    {
      "bufferView": 2,
      "componentType": 5126,
      "count": 53935,
      "type": "VEC2"
    },
    {
      "bufferView": 3,
      "componentType": 5123,
      "count": 322170,
      "type": "SCALAR"
    }
  ],
  "bufferViews": [
    {
      "buffer": 0,
      "byteLength": 647220,
      "byteOffset": 0
    },
    {
      "buffer": 0,
      "byteLength": 647220,
      "byteOffset": 647220
    },
    {
      "buffer": 0,
      "byteLength": 431480,
      "byteOffset": 1294440
    },
    {
      "buffer": 0,
      "byteLength": 644340,
      "byteOffset": 1725920
    }
  ],
  "samplers": [
    {
      "magFilter": 9729,
      "minFilter": 9987
    }
  ],
  "buffers": [
    {
      "byteLength": 2370260,
      "uri": "laminate_floor.bin"
    }
  ]
}